<svg id="Capa_1" data-name="Capa 1" xmlns="http://www.w3.org/2000/svg" viewBox="0 0 480 448"><defs><style>.cls-1{fill:none;stroke:#64ffda;stroke-linejoin:round;stroke-width:32px;}.cls-2{fill:#64ffda;}</style></defs><path class="cls-1" d="M80,48H432a48,48,0,0,1,48,48V416a48,48,0,0,1-48,48H80a48,48,0,0,1-48-48V96A48,48,0,0,1,80,48Z" transform="translate(-16 -32)"/><text x="-16" y="-32"/><path class="cls-2" d="M314.64,206.59l-17.36-17.34L210.51,276a36.82,36.82,0,0,0,52.07,52.06L366.7,224a61.35,61.35,0,0,0-86.76-86.76L170.61,246.51l-.23.22a85.56,85.56,0,0,0,121,121c.08-.07.14-.15.22-.23h0l74.63-74.61-17.37-17.35-74.62,74.61-.22.22a61,61,0,1,1-86.31-86.29l.24-.22v0l109.34-109.3a36.81,36.81,0,1,1,52.06,52.05L245.25,310.7a12.27,12.27,0,0,1-17.36-17.34l86.77-86.77Z" transform="translate(-16 -32)"/></svg>