<svg id="Capa_1" data-name="Capa 1" xmlns="http://www.w3.org/2000/svg" viewBox="0 0 480 448"><defs><style>.cls-1{fill:none;stroke:#64ffda;stroke-linejoin:round;stroke-width:32px;}</style></defs><path class="cls-1" d="M80,48H432a48,48,0,0,1,48,48V416a48,48,0,0,1-48,48H80a48,48,0,0,1-48-48V96A48,48,0,0,1,80,48Z" transform="translate(-16 -32)"/><text x="-16" y="-32"/><path class="cls-1" d="M354.26,241.54c-5.5-55.24-43.82-88.87-88.88-88.87-42.58,0-70,29.74-79,59.25-37,3.7-69.12,26.9-69.12,69.12,0,40.73,33.32,69.13,74.06,69.13H351.79c33.94,0,61.72-16.92,61.72-54.32C413.51,259,380.8,242.9,354.26,241.54Z" transform="translate(-16 -32)"/></svg>