<svg id="Capa_1" data-name="Capa 1" xmlns="http://www.w3.org/2000/svg" viewBox="0 0 480 448"><defs><style>.cls-1,.cls-2,.cls-3{fill:none;stroke:#64ffda;}.cls-1{stroke-linejoin:round;}.cls-1,.cls-3{stroke-width:32px;}.cls-2{stroke-miterlimit:10;stroke-width:32px;}.cls-3{stroke-linecap:round;stroke-miterlimit:10;}</style></defs><path class="cls-1" d="M80,48H432a48,48,0,0,1,48,48V416a48,48,0,0,1-48,48H80a48,48,0,0,1-48-48V96A48,48,0,0,1,80,48Z" transform="translate(-16 -32)"/><text x="-16" y="-32"/><path class="cls-2" d="M211.2,213.34h0a19.29,19.29,0,0,1,27.29,0L374.9,349.75a19.3,19.3,0,0,1,0,27.28h0a19.31,19.31,0,0,1-27.29,0L211.21,240.62A19.29,19.29,0,0,1,211.2,213.34Z" transform="translate(-16 -32)"/><path class="cls-3" d="M131.45,221.73h29.38m-3.56-62.33,20.78,20.78m41.55-46.6V163m62.32-3.57-20.77,20.78m-83.1,83.1-20.78,20.77" transform="translate(-16 -32)"/></svg>