<svg id="Capa_1" data-name="Capa 1" xmlns="http://www.w3.org/2000/svg" viewBox="0 0 480 448"><defs><style>.cls-1{fill:none;stroke:#64ffda;stroke-linejoin:round;stroke-width:32px;}.cls-2{fill:#64ffda;}</style></defs><path class="cls-1" d="M80,48H432a48,48,0,0,1,48,48V416a48,48,0,0,1-48,48H80a48,48,0,0,1-48-48V96A48,48,0,0,1,80,48Z" transform="translate(-16 -32)"/><text x="-16" y="-32"/><path class="cls-2" d="M247.47,364.24c42-40.91,105-102.24,105-102.24s-63-61.33-105-102.24a31.79,31.79,0,0,0-54,22.78V341.46a31.79,31.79,0,0,0,54,22.78Z" transform="translate(-16 -32)"/></svg>